<svg xmlns="http://www.w3.org/2000/svg" width="24.003" height="23.995" viewBox="0 0 24.003 23.995"><path d="M-81,45.35a12,12,0,0,1-12,12,11.97,11.97,0,0,1-8.833-3.875,12.049,12.049,0,0,1-1.52-2.049A11.942,11.942,0,0,1-105,45.35a12,12,0,0,1,12-12A11.945,11.945,0,0,1-86.923,35a12,12,0,0,1,2.05,1.52A11.961,11.961,0,0,1-81,45.35Z" transform="translate(105 -33.352)" fill="#f0cd00"/><path d="M-62.8,45.519a12.006,12.006,0,0,1-11.568,11.99,12.006,12.006,0,0,1-11.568-11.99,12.006,12.006,0,0,1,11.568-11.99A12.006,12.006,0,0,1-62.8,45.519Z" transform="translate(86.807 -33.521)" fill="#ffde50"/><path d="M-51.918,70.006-68.356,86.444a11.683,11.683,0,0,1-1.473-1.987L-53.9,68.533A11.631,11.631,0,0,1-51.918,70.006Z" transform="translate(71.427 -66.934)" fill="#ffea94"/><path d="M10.613,133.881-4.472,148.966a11.619,11.619,0,0,1-2.945-1.692L8.921,130.935A11.6,11.6,0,0,1,10.613,133.881Z" transform="translate(12.587 -125.772)" fill="#ffea94"/><path d="M-29.112,99.828a9.406,9.406,0,0,1-9.408,9.4,9.365,9.365,0,0,1-4.934-1.4,9.432,9.432,0,0,1-1.718-1.359,9.418,9.418,0,0,1-1.039-1.232,9.374,9.374,0,0,1-1.062-1.965,9.357,9.357,0,0,1-.653-3.337c0-.039,0-.077,0-.116a9.406,9.406,0,0,1,9.408-9.4h.116a9.375,9.375,0,0,1,3.338.653A9.4,9.4,0,0,1-33.1,92.14a9.5,9.5,0,0,1,1.232,1.038A9.413,9.413,0,0,1-30.509,94.9,9.356,9.356,0,0,1-29.112,99.828Z" transform="translate(50.522 -87.83)" fill="#faa300"/><path d="M-32.5,93.072-45.28,105.856a9.052,9.052,0,0,1-1-1.184,9.012,9.012,0,0,1-1.021-1.889,9,9,0,0,1-.628-3.208c0-.037,0-.074,0-.111a9.04,9.04,0,0,1,9.04-9.04h.112a9.005,9.005,0,0,1,3.207.628,9.035,9.035,0,0,1,1.889,1.021A9.122,9.122,0,0,1-32.5,93.072Z" transform="translate(50.522 -87.83)" fill="#ffbd00"/><path d="M149.312,99.828a9.228,9.228,0,0,1-9.04,9.4q-.257,0-.51-.015a9.433,9.433,0,0,0,0-18.779q.254-.015.51-.015A9.228,9.228,0,0,1,149.312,99.828Z" transform="translate(-127.903 -87.83)" fill="#f68e00"/><path d="M42.563,137.061H41.015a1,1,0,0,0,0,1.994h.543a6.346,6.346,0,0,1-2.472,4.483.881.881,0,0,1-.974.086.952.952,0,0,1-.509-.869v-4.807h.651a1,1,0,0,0,0-1.994H37.6v-4.542a.974.974,0,0,0-.95-1H34.473a1,1,0,0,0,0,1.994H35.7v3.545H33.77a1,1,0,0,0,0,1.994H35.7v4.807a2.973,2.973,0,0,0,1.551,2.649,2.707,2.707,0,0,0,2.957-.26,8.554,8.554,0,0,0,3.3-7.086A.974.974,0,0,0,42.563,137.061Z" transform="translate(-26.19 -126.003)" fill="#f68e00"/><path d="M68.687,137.061H67.139a1,1,0,0,0,0,1.994h.543a6.347,6.347,0,0,1-2.472,4.483.881.881,0,0,1-.974.086.952.952,0,0,1-.509-.869v-4.807h.651a1,1,0,0,0,0-1.994h-.651v-4.542a.974.974,0,0,0-.95-1H60.6a1,1,0,0,0,0,1.994h1.231v3.545H59.894a1,1,0,0,0,0,1.994h1.934v4.807a2.973,2.973,0,0,0,1.551,2.649,2.707,2.707,0,0,0,2.957-.26,8.554,8.554,0,0,0,3.3-7.086A.974.974,0,0,0,68.687,137.061Z" transform="translate(-51.058 -126.003)" fill="#ffea94"/></svg>